<svg width="1252" height="854" viewBox="0 0 1252 854" xmlns="http://www.w3.org/2000/svg"><title>rubi&amp;apos;s logo</title><g fill="none" fill-rule="evenodd"><path d="M1217.116 313.704c-10.177 46.07-29.94 87.17-61.04 128.318-31.098 41.148-75.276 74.174-126.914 109.981l-15.625-38.075c37.047-34.13 108.646-94.663 120.805-170.023-35.706-38.949-50.712-47.832-73.074-86.153-22.365-38.32-50.169-84.275-62.068-126.577 21.496-29.103 51.166-54.854 77.47-77.47 26.298-22.615 59.993-36.448 91.285-52.576l21.53 28.851c-25.34 15.078-105.589 79.064-120.562 101.68 20.156 42.512 46.791 71.715 72.13 107.1 25.34 35.391 46.117 47.515 76.063 74.944zM984.191 6.114c7.781 12.48 8.581 24.67 12.477 36.57 3.885 11.904 5.84 23.517 5.84 34.841 0 9.984-1.815 20.158-5.439 30.523-3.622 10.366-4.58 25.692-11.829 37.017l-42.326-9.502c3.756-6.14 5.945-17.049 7.693-23.772 1.743-6.717 2.617-14.01 2.617-21.883 0-12.095-2.818-23.563-8.456-34.41-5.636-10.844-7.96-20.202-18.158-28.076l57.581-21.309zm-151.23 41.3c3.975-8.199 8.666-14.405 14.083-18.613 5.412-4.207 11.32-6.312 17.732-6.312 13.473 0 23.307 2.59 29.495 7.768 6.184 5.18 9.28 13.382 9.28 24.6 0 14.241-3.372 24.33-10.108 30.264-6.743 5.937-18.285 8.9-34.634 8.9-17.678 0-32.427-4.314-44.244-12.946-11.823-8.628-17.73-19.098-17.73-31.397 0-10.358 3.754-19.583 11.267-27.674 7.51-8.09 19-15.263 34.467-21.524l5.303 10.035c-9.726 4.75-16.57 9.062-20.547 12.946-3.977 3.884-6.41 8.202-7.29 12.946l-1.99 11.006c0 12.086 2.593 21.094 7.788 27.026 5.19 5.938 12.976 8.902 23.366 8.902 9.278 0 16.237-1.564 20.878-4.694 4.641-3.125 6.96-7.712 6.96-13.757 0-.859-.113-1.885-.33-3.075-.225-1.183-.333-1.993-.333-2.427 0-.647-.057-1.346-.166-2.103a25.684 25.684 0 0 0-.496-2.429c-2.434-2.154-4.92-3.773-7.458-4.855-2.54-1.077-5.029-1.724-7.456-1.942-2.652 0-5.194.81-7.622 2.428-2.434 1.618-4.423 3.722-5.965 6.312l-14.25-9.386zm46.614 166.782c-4.86-35.718-18.426-72.308-28.373-109.76-.83.03-11.18.05-12.012.063-14.73 27.925-24.45 58.147-32.496 90.684-8.35 33.768-10.288 67.891-10.288 102.366 0 39.547 7.423 81.68 17.79 126.397 9.648 41.62 26.565 83.02 44.03 124.198 3.55-.627 11.453-1.812 14.861-3.072 3.79-27.77 7.817-55.37 9.816-82.796 2.4-32.954 3.04-65.352 3.04-97.193v-38.026c0-38.53-1.378-76.152-6.368-112.86zM686.185 476.65c7.602-10.632 13.243-23.66 16.922-39.08 3.674-15.423 4.938-31.613 3.786-48.57-1.739-25.61-9.73-45.43-23.974-59.462-14.247-14.025-34.392-21.84-60.442-23.444l.108 1.59c1.62 23.846 7.957 50.566 19.014 80.161 11.057 29.593 25.918 59.196 44.586 88.805zm-66.21-221.11c14.697-17.603 25.794-35.746 33.296-54.425 7.5-18.676 11.253-37.276 11.253-55.802 0-7.348-.689-14.352-2.067-21.01-1.378-6.66-3.523-13.206-6.43-19.636-11.94 19.445-21.012 40.801-27.21 64.07-6.202 23.271-9.303 47.918-9.303 73.942 0 3.525.037 6.241.116 8.153.075 1.916.19 3.484.344 4.707zm53.655 2.224c29.2 12.621 51.892 29.847 68.08 51.687 16.186 21.838 24.28 45.962 24.28 72.361 0 28.732-8.57 58.338-25.71 88.813-17.139 30.48-41.05 58.334-71.729 83.572-29.625-33.005-52.954-74.837-69.984-125.504-17.034-50.667-25.55-103.855-25.55-159.572 0-45.813 6.507-90.606 19.52-134.385C605.551 90.96 625.07 48.3 651.095 6.756c23.695 15.338 41.523 32.76 53.481 52.268 11.951 19.51 17.932 41.11 17.932 64.791 0 17.667-3.546 36.5-10.633 56.491-7.092 19.997-19.837 45.817-38.245 77.457zM547.464 35.715l-9.147 114.893c-15.243 186.403-26.323 319.914-33.23 400.54-71.748-28.606-125.452-66.804-161.123-114.605-35.67-47.799-53.504-105.484-53.504-173.058 0-37.24 5.335-75.92 16.005-116.045 10.671-40.119 22.093-86.599 44.044-131.52l72.588 26.418c-9.756 26.491-17.177 56.97-22.256 91.425-5.083 34.46-7.62 72.131-7.62 113.021 0 70.647 8.187 126.87 26.1 177.892 17.027 48.51 42.49 69.316 51.986 73.601 0-19.448-1.218-120.763 0-202.542 1.22-81.778-.815-168.064 0-258.868l76.157-1.152zM100.9 382.183c26.297-19.142 46.515-45.148 63.925-76.264 23.494-41.988 28.928-169.528-42.616-189.273L100.9 382.183zM47.674 35.703c52.79 7.68 101.967 22.375 133.256 45.057 30.56 22.152 65.817 68.24 74.513 113.167 7.041 36.377 11.087 95.846-17.9 145.122-18.458 31.38-61.052 61.372-105.889 86.644 34.29 27.79 100.456 65.19 121.741 79.711l-47.827 46.377L99.77 469.172v103.386l-65.103-1.152c4.797-121.514 8.351-226.762 10.655-315.739 2.303-88.977 2.352-164.292 2.352-219.965z" fill="#D9222A"/><path d="M665.108 782.037a541.375 541.375 0 0 0-26.94 5.961c-7.698-12.537-13.289-24.788-16.77-36.754-3.483-11.963-5.223-17.565-5.223-36.814v-4.107c6.05-3.619 28.405-17.399 33.263-19.344l-6.667-.396a71.576 71.576 0 0 0-4.055-.133c-2.933 0-6.277.111-10.033.331-3.758.222-8.294.553-13.607.993 0 0 8.443-35.355 12.385-47.894 7.236.442 13.675.773 19.311.993 5.635.222 10.741.331 15.325.331 3.114 0 5.497-.066 7.148-.066 7.701 0 6.234-3.992 7.701-4.08l-58.984-28.22c-11.82 18.101-20.596 36.422-26.32 54.964-5.729 18.543-8.592 37.924-8.592 58.143 0 21.721 2.863 42.383 8.591 61.984 5.725 19.602 13.446 35.41 23.16 47.416 17.318-9.448 32.232-18.189 44.74-26.224 14.77-9.487 30.194-20.066 33.193-31.719-13.096 1.306-18.556 2.87-27.626 4.635zm585.944 29.821a222.972 222.972 0 0 0-2 13.235c-.53 4.391-.84 8.687-.927 12.767a2.434 2.434 0 0 1-.855 1.783 2.802 2.802 0 0 1-1.967.673c-3.909-.175-15.896-1.62-36.65-4.418a7000.72 7000.72 0 0 1-22.646-3.014c-1.212-.165-2.154-1.07-2.29-2.205-2.767-23.202-6.597-52.467-11.383-86.985-4.787-34.503-11.112-78.142-18.8-129.703a2.381 2.381 0 0 1 .556-1.903 2.755 2.755 0 0 1 1.86-.94l44.75-3.893a2.822 2.822 0 0 1 2.084.66c.561.484.874 1.171.86 1.885l-4.123 202.69 48.666-3.552a2.795 2.795 0 0 1 2.197.808c.561.57.807 1.35.668 2.112zm-105.67-2.112c.561.57.807 1.35.667 2.112a223.793 223.793 0 0 0-2 13.235c-.529 4.391-.84 8.687-.927 12.767a2.433 2.433 0 0 1-.854 1.783 2.802 2.802 0 0 1-1.967.673c-3.909-.175-15.897-1.62-36.65-4.418a7046.676 7046.676 0 0 1-22.647-3.014c-1.212-.165-2.153-1.07-2.289-2.205-2.767-23.202-6.597-52.467-11.383-86.985-4.787-34.503-11.112-78.142-18.8-129.703-.102-.679.1-1.366.556-1.903a2.759 2.759 0 0 1 1.86-.94l44.751-3.893a2.818 2.818 0 0 1 2.082.66 2.43 2.43 0 0 1 .86 1.885l-4.122 202.69 48.666-3.552a2.795 2.795 0 0 1 2.197.808zM938.96 677.441c0-9.444-2.132-16.882-6.336-22.105-3.823-4.747-10.547-9.127-20.014-13.042l-9.15 99.08c9.794-7.118 17.98-16.168 24.377-26.968 7.38-12.458 11.123-24.894 11.123-36.965zm-25.874 86.51c10.438 14.811 20.07 27.851 28.65 38.785 8.94 11.4 17.307 21.294 24.864 29.412.54.58.766 1.36.612 2.114-.155.754-.672 1.401-1.403 1.755L936.02 850.46a2.876 2.876 0 0 1-2.127.144 2.633 2.633 0 0 1-1.572-1.34l-28.844-59.836 2.315 57.71a2.414 2.414 0 0 1-.779 1.858 2.821 2.821 0 0 1-1.989.742l-18.87-.503a2.781 2.781 0 0 1-1.89-.795 2.408 2.408 0 0 1-.723-1.81c2.237-52.828 3.916-99.147 4.985-137.669 1.073-38.593 1.617-70.408 1.617-94.562 0-.727.34-1.42.932-1.897a2.827 2.827 0 0 1 2.147-.585c25.12 3.405 44.75 10.79 58.342 21.95 13.798 11.331 20.794 26.076 20.794 43.826 0 16.562-4.719 31.948-14.027 45.73-8.91 13.191-23.454 26.82-43.245 40.53zm-46.867-50.73c.536.574.763 1.345.616 2.094l-23.672 120.56c-.144.731-.629 1.366-1.324 1.732a2.841 2.841 0 0 1-2.276.163c-27.78-9.772-48.562-23.763-61.766-41.586-13.206-17.822-19.9-40.825-19.9-68.368 0-26.43 7.494-50.89 22.276-72.704 14.8-21.837 34.835-37.959 59.552-47.916a2.869 2.869 0 0 1 2.463.156c.745.42 1.226 1.151 1.29 1.96l1.113 13.95c.066.822-.306 1.623-.996 2.14-17.436 13.078-30.897 28.323-40.008 45.311-9.098 16.964-13.71 35.506-13.71 55.111 0 18.407 3.224 34.513 9.585 47.866 5.697 11.964 14.412 22.654 25.94 31.833l5.38-67.722-17.296.741c-1.376.062-2.584-.863-2.787-2.136l-3.063-19.18a2.385 2.385 0 0 1 .59-1.969 2.763 2.763 0 0 1 1.966-.907l53.888-1.993c.817-.027 1.603.287 2.14.863zm-416.016 4.52c-4.737-1.12-8.54-2.55-11.413-4.286 1.398-9.33 4.776-17.844 10.988-31.805l.582-1.085c2.251.797 5.374 2.041 8.52 9.996 3.143 7.958 5.917 17.794 8.325 29.512-6.599-.433-12.267-1.21-17.002-2.333zm43.663 135.62l.075.023c1.802-13.76 3.18-26.095 4.125-36.998 1.13-13.032 1.695-24.725 1.695-35.079 0-34.225-4.545-68.648-13.633-97.125-9.09-28.475-22.11-52.278-39.064-71.409-15.166 30.626-26.68 61.23-34.543 91.811-7.866 30.583-11.797 63.253-11.797 91.86 0 10.793.071 19 .212 24.614.075 2.983.183 5.875.325 8.685.75.156 5.395.157 6.113.387 6.923-26.299 10.71-46.93 15.145-62.083 4.803-16.408 11.264-33.864 11.264-33.864 5.18.177 10.643.704 16.39 1.58 5.743.878 9.455 2.062 15.484 3.553 5.461 15.973 10.264 34.027 14.41 54.165 3.652 17.752 6.385 37.486 9.087 59.225.695.21 4.007.448 4.712.655zm-175.675-228.65l4.648 27.635 36.348-11.288L280.16 828.48l82.201 23.771 22.011-51.863-52.446-9.764 69.665-172.142-83.4 6.23zm-106.286 0l4.648 27.635 36.347-11.288-79.026 187.421 82.201 23.771 22.011-51.863-52.446-9.764 69.664-172.142-83.399 6.23zm-186.359 7.936c13.577.735 25.947 5.28 37.108 13.632 11.162 8.355 17.833 18.122 20.015 29.308 2.057 10.551-1.068 21.567-9.37 33.052-8.306 11.485-20.112 20.941-35.418 28.366L25.546 632.647zM7.628 613.363c-.047 2.156-.069 5.106-.069 8.851 0 32.874-9.672 183.734-6.058 224.848l42.404-5.643-9.086-64.906c21.68-8.71 55.286-35.049 66.635-47.974 11.348-12.924 15.145-40.329 15.145-56.44 0-19.292-3.908-26.443-18.174-39.507-14.268-13.066-36.346-19.754-57.548-22.576-5.138-.684-17.523-3.335-22.062-2.822-4.54.516-8.199-.806-10.978.128a214.997 214.997 0 0 0-.209 6.041zm1001.73 18.536a8.778 8.778 0 0 1 2.81-2.768c1.142-.71 2.34-1.066 3.587-1.066 1.143.096 2.315.38 3.511.853 1.196.474 2.365 1.184 3.511 2.13.103.38.181.734.234 1.064.052.333.078.64.078.923 0 .19.051.546.157 1.065.102.522.156.972.156 1.35 0 2.65-1.092 4.662-3.277 6.033-2.186 1.374-5.462 2.06-9.83 2.06-4.892 0-8.559-1.3-11.002-3.904-2.446-2.604-3.667-6.555-3.667-11.857l.936-4.828c.414-2.08 1.56-3.975 3.433-5.68 1.873-1.703 5.095-3.594 9.675-5.678l-2.498-4.402c-7.282 2.746-12.693 5.893-16.228 9.442-3.537 3.55-5.306 7.596-5.306 12.14 0 5.395 2.782 9.988 8.35 13.773 5.563 3.787 12.507 5.678 20.831 5.678 7.697 0 13.133-1.298 16.307-3.903 3.172-2.603 4.76-7.029 4.76-13.277 0-4.92-1.459-8.519-4.37-10.79-2.914-2.272-7.544-3.408-13.887-3.408-3.02 0-5.802.923-8.35 2.768-2.55 1.846-4.759 4.568-6.63 8.165l6.71 4.117zm15.238 69.047c-2.288-15.669-8.675-31.72-13.359-48.149-.39.012-5.264.021-5.655.027-6.936 12.25-11.512 25.51-15.3 39.781-3.933 14.814-4.844 29.782-4.844 44.906 0 17.347 3.494 35.83 8.375 55.447 4.543 18.258 12.507 36.418 20.732 54.482 1.67-.274 5.392-.795 6.997-1.347 1.785-12.183 3.68-24.29 4.622-36.32 1.128-14.458 1.43-28.669 1.43-42.637v-16.68c0-16.903-.648-33.407-2.998-49.51zM153.68 631.9a8.785 8.785 0 0 1 2.808-2.768c1.143-.71 2.34-1.066 3.59-1.066 1.142.096 2.314.38 3.51.853 1.194.474 2.365 1.184 3.511 2.13.103.38.18.734.234 1.064.052.333.078.64.078.923 0 .19.051.546.156 1.065.103.522.156.972.156 1.35 0 2.65-1.092 4.662-3.277 6.033-2.185 1.374-5.462 2.06-9.83 2.06-4.892 0-8.558-1.3-11.002-3.904-2.445-2.604-3.667-6.555-3.667-11.857l.937-4.828c.413-2.08 1.56-3.975 3.433-5.68 1.872-1.703 5.095-3.594 9.674-5.678l-2.497-4.402c-7.283 2.746-12.693 5.893-16.228 9.442-3.538 3.55-5.305 7.596-5.305 12.14 0 5.395 2.781 9.988 8.348 13.773 5.564 3.787 12.508 5.678 20.831 5.678 7.698 0 13.133-1.298 16.307-3.903 3.173-2.603 4.76-7.029 4.76-13.277 0-4.92-1.458-8.519-4.369-10.79-2.914-2.272-7.544-3.408-13.888-3.408-3.019 0-5.8.923-8.349 2.768-2.55 1.846-4.759 4.568-6.632 8.165l6.711 4.117zm18.236 118.556v16.681c0 13.968-.302 28.18-1.432 42.636-.94 12.031-2.836 24.138-4.62 36.321-1.605.552-5.326 1.073-6.998 1.347-8.224-18.064-16.189-36.224-20.73-54.482-4.882-19.617-8.377-38.1-8.377-55.447 0-15.124.912-30.092 4.844-44.906 3.788-14.272 8.364-27.53 15.3-39.78.392-.007 5.265-.016 5.656-.028 4.683 16.428 11.071 32.48 13.36 48.15 2.348 16.102 2.997 32.606 2.997 49.508z" fill="#0C5D35"/></g></svg>