<?xml version="1.0" encoding="UTF-8"?>
<svg width="1252px" height="854px" viewBox="0 0 1252 854" version="1.1" xmlns="http://www.w3.org/2000/svg" xmlns:xlink="http://www.w3.org/1999/xlink">
    <!-- Generator: Sketch 43.2 (39069) - http://www.bohemiancoding.com/sketch -->
    <title>rubi's logo</title>
    <desc>Created with Sketch.</desc>
    <defs></defs>
    <g id="Page-1" stroke="none" stroke-width="1" fill="none" fill-rule="evenodd">
        <g id="rubi's-logo" transform="translate(0.000000, -371.000000)">
            <path d="M1217.1162,684.7041 C1206.9392,730.7741 1187.1762,771.8741 1156.0762,813.0221 C1124.9782,854.1701 1080.8002,887.1961 1029.1622,923.0031 L1013.5372,884.9281 C1050.5842,850.7981 1122.1832,790.2651 1134.3422,714.9051 C1098.6362,675.9561 1083.6302,667.0731 1061.2682,628.7521 C1038.9032,590.4311 1011.0992,544.4771 999.2002,502.1751 C1020.6962,473.0721 1050.3662,447.3211 1076.6702,424.7051 C1102.9682,402.0901 1136.6632,388.2571 1167.9552,372.1291 L1189.4852,400.9801 C1164.1452,416.0581 1083.8962,480.0441 1068.9232,502.6591 C1089.0792,545.1721 1115.7142,574.3751 1141.0532,609.7601 C1166.3922,645.1511 1187.1702,657.2751 1217.1162,684.7041 L1217.1162,684.7041 Z M984.1912,377.1131 C991.9722,389.5941 992.7722,401.7831 996.6682,413.6831 C1000.5532,425.5881 1002.5072,437.2011 1002.5072,448.5251 C1002.5072,458.5091 1000.6932,468.6831 997.0692,479.0481 C993.4472,489.4141 992.4892,504.7401 985.2402,516.0651 L942.9142,506.5631 C946.6702,500.4221 948.8592,489.5141 950.6072,482.7911 C952.3502,476.0741 953.2242,468.7811 953.2242,460.9081 C953.2242,448.8131 950.4062,437.3451 944.7682,426.4971 C939.1322,415.6541 936.8082,406.2961 926.6102,398.4221 L984.1912,377.1131 Z M832.9602,418.4131 C836.9362,410.2151 841.6272,404.0091 847.0442,399.8011 C852.4562,395.5941 858.3632,393.4891 864.7762,393.4891 C878.2492,393.4891 888.0832,396.0791 894.2712,401.2571 C900.4552,406.4361 903.5512,414.6391 903.5512,425.8561 C903.5512,440.0981 900.1792,450.1871 893.4432,456.1211 C886.7002,462.0581 875.1582,465.0211 858.8092,465.0211 C841.1312,465.0211 826.3822,460.7071 814.5652,452.0751 C802.7422,443.4471 796.8342,432.9771 796.8342,420.6781 C796.8342,410.3201 800.5892,401.0951 808.1022,393.0041 C815.6112,384.9131 827.1012,377.7411 842.5692,371.4801 L847.8722,381.5151 C838.1462,386.2641 831.3022,390.5771 827.3252,394.4611 C823.3482,398.3451 820.9142,402.6631 820.0342,407.4071 L818.0452,418.4131 C818.0452,430.4991 820.6382,439.5071 825.8332,445.4391 C831.0232,451.3771 838.8092,454.3411 849.1992,454.3411 C858.4772,454.3411 865.4362,452.7771 870.0772,449.6471 C874.7182,446.5221 877.0372,441.9351 877.0372,435.8901 C877.0372,435.0311 876.9242,434.0051 876.7062,432.8151 C876.4822,431.6321 876.3742,430.8221 876.3742,430.3881 C876.3742,429.7411 876.3172,429.0421 876.2082,428.2851 C876.0952,427.5311 875.9292,426.7211 875.7122,425.8561 C873.2782,423.7021 870.7922,422.0831 868.2542,421.0011 C865.7132,419.9241 863.2252,419.2771 860.7982,419.0591 C858.1462,419.0591 855.6042,419.8691 853.1762,421.4871 C850.7422,423.1051 848.7532,425.2091 847.2112,427.7991 L832.9602,418.4131 Z M879.5752,585.1961 C874.7152,549.4781 861.1492,512.8881 851.2022,475.4361 C850.3712,475.4661 840.0222,475.4851 839.1902,475.4991 C824.4602,503.4241 814.7402,533.6461 806.6942,566.1831 C798.3432,599.9511 796.4062,634.0741 796.4062,668.5491 C796.4062,708.0961 803.8292,750.2281 814.1952,794.9461 C823.8442,836.5651 840.7612,877.9661 858.2252,919.1441 C861.7762,918.5171 869.6792,917.3321 873.0872,916.0721 C876.8772,888.3011 880.9042,860.7011 882.9032,833.2761 C885.3022,800.3221 885.9422,767.9241 885.9422,736.0831 L885.9422,698.0571 C885.9422,659.5271 884.5652,621.9051 879.5752,585.1961 L879.5752,585.1961 Z M686.1852,847.6491 C693.7872,837.0171 699.4282,823.9891 703.1072,808.5681 C706.7812,793.1461 708.0452,776.9561 706.8932,759.9981 C705.1542,734.3881 697.1622,714.5681 682.9192,700.5371 C668.6722,686.5121 648.5272,678.6961 622.4772,677.0931 L622.5852,678.6831 C624.2052,702.5291 630.5422,729.2491 641.5992,758.8441 C652.6562,788.4371 667.5172,818.0401 686.1852,847.6491 L686.1852,847.6491 Z M619.9742,626.5381 C634.6722,608.9361 645.7692,590.7931 653.2712,572.1141 C660.7712,553.4381 664.5242,534.8381 664.5242,516.3121 C664.5242,508.9641 663.8352,501.9601 662.4572,495.3011 C661.0792,488.6411 658.9342,482.0961 656.0272,475.6661 C644.0862,495.1111 635.0152,516.4671 628.8162,539.7361 C622.6152,563.0071 619.5142,587.6541 619.5142,613.6781 C619.5142,617.2031 619.5512,619.9191 619.6302,621.8311 C619.7052,623.7471 619.8202,625.3151 619.9742,626.5381 L619.9742,626.5381 Z M673.6302,628.7631 C702.8292,641.3841 725.5222,658.6101 741.7092,680.4501 C757.8962,702.2881 765.9902,726.4121 765.9902,752.8111 C765.9902,781.5431 757.4202,811.1491 740.2802,841.6241 C723.1412,872.1041 699.2292,899.9581 668.5512,925.1961 C638.9262,892.1911 615.5972,850.3591 598.5672,799.6921 C581.5332,749.0251 573.0172,695.8371 573.0172,640.1201 C573.0172,594.3071 579.5242,549.5141 592.5372,505.7351 C605.5512,461.9601 625.0692,419.3001 651.0952,377.7561 C674.7902,393.0941 692.6182,410.5151 704.5762,430.0241 C716.5272,449.5341 722.5082,471.1331 722.5082,494.8151 C722.5082,512.4821 718.9622,531.3141 711.8752,551.3061 C704.7832,571.3031 692.0382,597.1231 673.6302,628.7631 L673.6302,628.7631 Z M547.4642,406.7151 L538.3172,521.6081 C523.0742,708.0111 511.9942,841.5221 505.0872,922.1481 C433.3392,893.5421 379.6352,855.3441 343.9642,807.5431 C308.2942,759.7441 290.4602,702.0591 290.4602,634.4851 C290.4602,597.2451 295.7952,558.5651 306.4652,518.4401 C317.1362,478.3211 328.5582,431.8411 350.5092,386.9201 L423.0972,413.3381 C413.3412,439.8291 405.9202,470.3081 400.8412,504.7631 C395.7582,539.2231 393.2202,576.8941 393.2202,617.7841 C393.2202,688.4311 401.4082,744.6531 419.3202,795.6761 C436.3482,844.1851 461.8102,864.9921 471.3072,869.2771 C471.3072,849.8291 470.0892,748.5141 471.3072,666.7351 C472.5272,584.9571 470.4922,498.6711 471.3072,407.8671 L547.4642,406.7151 Z M100.8992,753.1831 C127.1962,734.0411 147.4142,708.0351 164.8242,676.9191 C188.3182,634.9311 193.7522,507.3911 122.2082,487.6461 L100.8992,753.1831 Z M47.6742,406.7021 C100.4632,414.3821 149.6412,429.0781 180.9302,451.7601 C211.4892,473.9121 246.7472,519.9991 255.4432,564.9271 C262.4842,601.3041 266.5302,660.7731 237.5432,710.0491 C219.0852,741.4281 176.4912,771.4211 131.6542,796.6931 C165.9432,824.4831 232.1102,861.8821 253.3952,876.4041 L205.5682,922.7811 L99.7702,840.1721 L99.7702,943.5581 L34.6672,942.4061 C39.4642,820.8921 43.0182,715.6441 45.3222,626.6671 C47.6252,537.6901 47.6742,462.3751 47.6742,406.7021 L47.6742,406.7021 Z" id="Fill-1" fill="#D9222A"></path>
            <path d="M665.1084,1153.0371 C656.0364,1154.8051 647.0544,1156.7911 638.1684,1158.9981 C630.4704,1146.4611 624.8794,1134.2101 621.3984,1122.2441 C617.9154,1110.2811 616.1754,1104.6791 616.1754,1085.4301 L616.1754,1081.3231 C622.2244,1077.7041 644.5804,1063.9241 649.4384,1061.9791 C646.5044,1061.8041 644.2844,1061.6721 642.7714,1061.5831 C641.2594,1061.4961 639.9064,1061.4501 638.7164,1061.4501 C635.7834,1061.4501 632.4394,1061.5611 628.6834,1061.7811 C624.9254,1062.0031 620.3894,1062.3341 615.0764,1062.7741 C615.0764,1062.7741 623.5194,1027.4191 627.4614,1014.8801 C634.6974,1015.3221 641.1364,1015.6531 646.7724,1015.8731 C652.4074,1016.0951 657.5134,1016.2041 662.0974,1016.2041 C665.2114,1016.2041 667.5944,1016.1381 669.2454,1016.1381 C676.9464,1016.1381 675.4794,1012.1461 676.9464,1012.0581 L617.9624,983.8381 C606.1414,1001.9391 597.3664,1020.2601 591.6414,1038.8021 C585.9134,1057.3451 583.0504,1076.7261 583.0504,1096.9451 C583.0504,1118.6661 585.9134,1139.3281 591.6414,1158.9291 C597.3664,1178.5311 605.0874,1194.3381 614.8014,1206.3451 C632.1194,1196.8971 647.0334,1188.1561 659.5414,1180.1211 C674.3114,1170.6341 689.7354,1160.0551 692.7344,1148.4021 C679.6384,1149.7081 674.1784,1151.2721 665.1084,1153.0371 L665.1084,1153.0371 Z M1251.0524,1182.8581 C1250.2564,1187.2261 1249.5834,1191.6791 1249.0514,1196.0931 C1248.5224,1200.4841 1248.2114,1204.7801 1248.1254,1208.8601 C1248.1104,1209.5381 1247.8024,1210.1811 1247.2704,1210.6431 C1246.7714,1211.0781 1246.1134,1211.3191 1245.4324,1211.3191 C1245.3894,1211.3191 1245.3464,1211.3181 1245.3034,1211.3161 C1241.3944,1211.1411 1229.4074,1209.6961 1208.6534,1206.8981 C1198.9224,1205.6151 1191.5114,1204.6291 1186.0074,1203.8841 C1184.7954,1203.7191 1183.8534,1202.8131 1183.7174,1201.6791 C1180.9504,1178.4771 1177.1204,1149.2121 1172.3344,1114.6941 C1167.5474,1080.1911 1161.2224,1036.5521 1153.5344,984.9911 C1153.4324,984.3121 1153.6334,983.6251 1154.0904,983.0881 C1154.5464,982.5521 1155.2184,982.2121 1155.9504,982.1481 L1200.7004,978.2551 C1201.4654,978.1881 1202.2214,978.4291 1202.7844,978.9141 C1203.3454,979.3991 1203.6584,980.0861 1203.6434,980.8001 L1199.5214,1183.4891 L1248.1874,1179.9381 C1249.0164,1179.8781 1249.8264,1180.1761 1250.3844,1180.7461 C1250.9454,1181.3161 1251.1914,1182.0961 1251.0524,1182.8581 L1251.0524,1182.8581 Z M1145.3824,1180.7461 C1145.9434,1181.3161 1146.1894,1182.0961 1146.0494,1182.8581 C1145.2544,1187.2261 1144.5814,1191.6791 1144.0494,1196.0931 C1143.5204,1200.4841 1143.2094,1204.7801 1143.1224,1208.8601 C1143.1084,1209.5381 1142.7994,1210.1811 1142.2684,1210.6431 C1141.7694,1211.0781 1141.1114,1211.3191 1140.4304,1211.3191 C1140.3874,1211.3191 1140.3444,1211.3181 1140.3014,1211.3161 C1136.3924,1211.1411 1124.4044,1209.6961 1103.6514,1206.8981 C1093.9204,1205.6151 1086.5094,1204.6291 1081.0044,1203.8841 C1079.7924,1203.7191 1078.8514,1202.8131 1078.7154,1201.6791 C1075.9484,1178.4771 1072.1184,1149.2121 1067.3324,1114.6941 C1062.5454,1080.1911 1056.2204,1036.5521 1048.5324,984.9911 C1048.4304,984.3121 1048.6324,983.6251 1049.0884,983.0881 C1049.5454,982.5521 1050.2174,982.2121 1050.9484,982.1481 L1095.6994,978.2551 C1096.4624,978.1881 1097.2194,978.4291 1097.7814,978.9141 C1098.3434,979.3991 1098.6554,980.0861 1098.6414,980.8001 L1094.5194,1183.4891 L1143.1854,1179.9381 C1144.0144,1179.8781 1144.8244,1180.1761 1145.3824,1180.7461 L1145.3824,1180.7461 Z M938.9604,1048.4411 C938.9604,1038.9971 936.8284,1031.5591 932.6244,1026.3361 C928.8014,1021.5891 922.0774,1017.2091 912.6104,1013.2941 L903.4604,1112.3741 C913.2544,1105.2561 921.4394,1096.2061 927.8374,1085.4061 C935.2174,1072.9481 938.9604,1060.5121 938.9604,1048.4411 L938.9604,1048.4411 Z M913.0864,1134.9511 C923.5244,1149.7621 933.1564,1162.8021 941.7354,1173.7361 C950.6764,1185.1351 959.0434,1195.0301 966.6004,1203.1481 C967.1404,1203.7281 967.3664,1204.5081 967.2124,1205.2621 C967.0574,1206.0161 966.5404,1206.6631 965.8094,1207.0171 L936.0204,1221.4591 C935.6324,1221.6471 935.2064,1221.7421 934.7784,1221.7421 C934.4794,1221.7421 934.1814,1221.6961 933.8934,1221.6031 C933.1944,1221.3771 932.6254,1220.8911 932.3214,1220.2621 L903.4774,1160.4271 L905.7924,1218.1361 C905.8194,1218.8291 905.5394,1219.5031 905.0134,1219.9951 C904.4904,1220.4881 903.7564,1220.7561 903.0244,1220.7371 L884.1534,1220.2341 C883.4354,1220.2151 882.7544,1219.9291 882.2634,1219.4391 C881.7724,1218.9491 881.5124,1218.2981 881.5414,1217.6281 C883.7784,1164.8011 885.4574,1118.4821 886.5264,1079.9601 C887.5994,1041.3671 888.1434,1009.5521 888.1434,985.3981 C888.1434,984.6711 888.4834,983.9781 889.0754,983.5011 C889.6664,983.0251 890.4494,982.8111 891.2224,982.9161 C916.3424,986.3211 935.9714,993.7061 949.5644,1004.8661 C963.3624,1016.1971 970.3584,1030.9421 970.3584,1048.6921 C970.3584,1065.2541 965.6394,1080.6401 956.3314,1094.4221 C947.4214,1107.6131 932.8774,1121.2411 913.0864,1134.9511 L913.0864,1134.9511 Z M866.2194,1084.2201 C866.7554,1084.7951 866.9824,1085.5661 866.8354,1086.3151 L843.1634,1206.8751 C843.0194,1207.6061 842.5344,1208.2411 841.8394,1208.6071 C841.4304,1208.8231 840.9734,1208.9331 840.5144,1208.9331 C840.1934,1208.9331 839.8714,1208.8781 839.5634,1208.7701 C811.7834,1198.9981 791.0014,1185.0071 777.7974,1167.1841 C764.5914,1149.3621 757.8964,1126.3591 757.8964,1098.8161 C757.8964,1072.3861 765.3914,1047.9251 780.1734,1026.1121 C794.9724,1004.2751 815.0084,988.1531 839.7254,978.1961 C840.5244,977.8741 841.4424,977.9321 842.1884,978.3521 C842.9334,978.7721 843.4144,979.5031 843.4784,980.3121 L844.5914,994.2621 C844.6574,995.0841 844.2854,995.8851 843.5954,996.4011 C826.1594,1009.4801 812.6984,1024.7251 803.5874,1041.7131 C794.4894,1058.6771 789.8774,1077.2191 789.8774,1096.8241 C789.8774,1115.2311 793.1014,1131.3371 799.4624,1144.6901 C805.1594,1156.6541 813.8744,1167.3441 825.4014,1176.5231 L830.7824,1108.8011 L813.4864,1109.5421 C812.1104,1109.6041 810.9024,1108.6791 810.6994,1107.4061 L807.6364,1088.2251 C807.5234,1087.5211 807.7384,1086.8061 808.2264,1086.2571 C808.7124,1085.7081 809.4274,1085.3791 810.1924,1085.3501 L864.0804,1083.3571 C864.8974,1083.3301 865.6834,1083.6441 866.2194,1084.2201 L866.2194,1084.2201 Z M450.2034,1088.7401 C445.4664,1087.6201 441.6624,1086.1911 438.7904,1084.4551 C440.1884,1075.1241 443.5664,1066.6111 449.7784,1052.6501 L450.3604,1051.5651 C452.6114,1052.3621 455.7344,1053.6061 458.8794,1061.5611 C462.0234,1069.5191 464.7974,1079.3551 467.2054,1091.0731 C460.6064,1090.6401 454.9384,1089.8631 450.2034,1088.7401 L450.2034,1088.7401 Z M493.8664,1224.3611 C493.8914,1224.3691 493.9164,1224.3761 493.9414,1224.3841 C495.7434,1210.6241 497.1204,1198.2891 498.0664,1187.3861 C499.1964,1174.3541 499.7614,1162.6611 499.7614,1152.3071 C499.7614,1118.0821 495.2164,1083.6591 486.1284,1055.1821 C477.0374,1026.7071 464.0174,1002.9041 447.0644,983.7731 C431.8984,1014.3991 420.3844,1045.0031 412.5214,1075.5841 C404.6554,1106.1671 400.7244,1138.8371 400.7244,1167.4431 C400.7244,1178.2371 400.7954,1186.4431 400.9364,1192.0581 C401.0114,1195.0411 401.1194,1197.9331 401.2614,1200.7431 C402.0114,1200.8991 406.6564,1200.9001 407.3744,1201.1301 C414.2974,1174.8311 418.0834,1154.1991 422.5194,1139.0471 C427.3224,1122.6391 433.7834,1105.1831 433.7834,1105.1831 C438.9624,1105.3601 444.4264,1105.8871 450.1724,1106.7631 C455.9164,1107.6411 459.6284,1108.8251 465.6574,1110.3161 C471.1184,1126.2891 475.9214,1144.3431 480.0674,1164.4811 C483.7194,1182.2331 486.4524,1201.9671 489.1544,1223.7061 C489.8494,1223.9161 493.1614,1224.1541 493.8664,1224.3611 L493.8664,1224.3611 Z M318.1914,995.7111 L322.8394,1023.3461 L359.1874,1012.0581 L280.1604,1199.4791 L362.3614,1223.2501 L384.3724,1171.3871 L331.9264,1161.6231 L401.5914,989.4811 L318.1914,995.7111 Z M211.9054,995.7111 L216.5534,1023.3461 L252.9004,1012.0581 L173.8744,1199.4791 L256.0754,1223.2501 L278.0864,1171.3871 L225.6404,1161.6231 L295.3044,989.4811 L211.9054,995.7111 Z M25.5464,1003.6471 C39.1234,1004.3821 51.4934,1008.9261 62.6544,1017.2791 C73.8164,1025.6341 80.4874,1035.4011 82.6694,1046.5871 C84.7264,1057.1381 81.6014,1068.1541 73.2984,1079.6391 C64.9934,1091.1241 53.1874,1100.5801 37.8814,1108.0051 L25.5464,1003.6471 Z M7.6284,984.3631 C7.5814,986.5191 7.5594,989.4691 7.5594,993.2141 C7.5594,1026.0881 -2.1126,1176.9481 1.5014,1218.0621 L43.9054,1212.4191 L34.8194,1147.5131 C56.4994,1138.8031 90.1054,1112.4641 101.4544,1099.5391 C112.8024,1086.6151 116.5994,1059.2101 116.5994,1043.0991 C116.5994,1023.8071 112.6914,1016.6561 98.4254,1003.5921 C84.1574,990.5261 62.0794,983.8381 40.8774,981.0161 C35.7394,980.3321 23.3544,977.6811 18.8154,978.1941 C14.2754,978.7101 10.6164,977.3881 7.8374,978.3221 C7.7444,980.1971 7.6744,982.2101 7.6284,984.3631 L7.6284,984.3631 Z M1009.3584,1002.8991 C1010.0844,1001.7641 1011.0204,1000.8411 1012.1674,1000.1311 C1013.3104,999.4211 1014.5074,999.0651 1015.7554,999.0651 C1016.8984,999.1611 1018.0704,999.4451 1019.2664,999.9181 C1020.4624,1000.3921 1021.6314,1001.1021 1022.7774,1002.0471 C1022.8804,1002.4271 1022.9584,1002.7821 1023.0114,1003.1121 C1023.0634,1003.4451 1023.0894,1003.7511 1023.0894,1004.0351 C1023.0894,1004.2251 1023.1404,1004.5811 1023.2464,1005.1001 C1023.3484,1005.6221 1023.4024,1006.0721 1023.4024,1006.4491 C1023.4024,1009.1001 1022.3104,1011.1121 1020.1254,1012.4831 C1017.9394,1013.8571 1014.6634,1014.5431 1010.2944,1014.5431 C1005.4034,1014.5431 1001.7364,1013.2421 999.2934,1010.6391 C996.8474,1008.0351 995.6264,1004.0841 995.6264,998.7821 L996.5624,993.9541 C996.9764,991.8731 998.1224,989.9791 999.9954,988.2741 C1001.8684,986.5711 1005.0904,984.6801 1009.6704,982.5961 L1007.1724,978.1941 C999.8904,980.9401 994.4794,984.0871 990.9444,987.6361 C987.4074,991.1851 985.6384,995.2321 985.6384,999.7751 C985.6384,1005.1711 988.4204,1009.7641 993.9874,1013.5491 C999.5514,1017.3361 1006.4954,1019.2271 1014.8194,1019.2271 C1022.5164,1019.2271 1027.9524,1017.9291 1031.1264,1015.3241 C1034.2984,1012.7211 1035.8854,1008.2951 1035.8854,1002.0471 C1035.8854,997.1261 1034.4274,993.5281 1031.5154,991.2571 C1028.6024,988.9851 1023.9724,987.8491 1017.6294,987.8491 C1014.6094,987.8491 1011.8274,988.7721 1009.2794,990.6171 C1006.7294,992.4631 1004.5204,995.1851 1002.6484,998.7821 L1009.3584,1002.8991 Z M1024.5964,1071.9461 C1022.3084,1056.2771 1015.9214,1040.2251 1011.2374,1023.7971 C1010.8464,1023.8091 1005.9734,1023.8181 1005.5824,1023.8241 C998.6464,1036.0741 994.0704,1049.3331 990.2814,1063.6051 C986.3494,1078.4191 985.4384,1093.3871 985.4384,1108.5111 C985.4384,1125.8581 988.9324,1144.3411 993.8134,1163.9581 C998.3564,1182.2161 1006.3204,1200.3761 1014.5454,1218.4401 C1016.2154,1218.1661 1019.9374,1217.6451 1021.5424,1217.0931 C1023.3274,1204.9101 1025.2224,1192.8031 1026.1644,1180.7721 C1027.2924,1166.3151 1027.5944,1152.1041 1027.5944,1138.1361 L1027.5944,1121.4551 C1027.5944,1104.5531 1026.9464,1088.0491 1024.5964,1071.9461 L1024.5964,1071.9461 Z M153.6794,1002.8991 C154.4054,1001.7641 155.3414,1000.8411 156.4874,1000.1311 C157.6304,999.4211 158.8274,999.0651 160.0764,999.0651 C161.2194,999.1611 162.3914,999.4451 163.5874,999.9181 C164.7814,1000.3921 165.9524,1001.1021 167.0984,1002.0471 C167.2014,1002.4271 167.2784,1002.7821 167.3324,1003.1121 C167.3844,1003.4451 167.4104,1003.7511 167.4104,1004.0351 C167.4104,1004.2251 167.4614,1004.5811 167.5664,1005.1001 C167.6694,1005.6221 167.7224,1006.0721 167.7224,1006.4491 C167.7224,1009.1001 166.6304,1011.1121 164.4454,1012.4831 C162.2604,1013.8571 158.9834,1014.5431 154.6144,1014.5431 C149.7234,1014.5431 146.0574,1013.2421 143.6134,1010.6391 C141.1684,1008.0351 139.9464,1004.0841 139.9464,998.7821 L140.8834,993.9541 C141.2964,991.8731 142.4434,989.9791 144.3164,988.2741 C146.1884,986.5711 149.4114,984.6801 153.9904,982.5961 L151.4934,978.1941 C144.2104,980.9401 138.8004,984.0871 135.2654,987.6361 C131.7274,991.1851 129.9604,995.2321 129.9604,999.7751 C129.9604,1005.1711 132.7414,1009.7641 138.3084,1013.5491 C143.8724,1017.3361 150.8164,1019.2271 159.1394,1019.2271 C166.8374,1019.2271 172.2724,1017.9291 175.4464,1015.3241 C178.6194,1012.7211 180.2064,1008.2951 180.2064,1002.0471 C180.2064,997.1261 178.7484,993.5281 175.8374,991.2571 C172.9234,988.9851 168.2934,987.8491 161.9494,987.8491 C158.9304,987.8491 156.1484,988.7721 153.6004,990.6171 C151.0494,992.4631 148.8414,995.1851 146.9684,998.7821 L153.6794,1002.8991 Z M171.9154,1121.4551 L171.9154,1138.1361 C171.9154,1152.1041 171.6134,1166.3151 170.4834,1180.7721 C169.5434,1192.8031 167.6474,1204.9101 165.8624,1217.0931 C164.2584,1217.6451 160.5374,1218.1661 158.8654,1218.4401 C150.6414,1200.3761 142.6764,1182.2161 138.1344,1163.9581 C133.2534,1144.3411 129.7584,1125.8581 129.7584,1108.5111 C129.7584,1093.3871 130.6704,1078.4191 134.6024,1063.6051 C138.3904,1049.3331 142.9664,1036.0741 149.9024,1023.8241 C150.2944,1023.8181 155.1674,1023.8091 155.5584,1023.7971 C160.2414,1040.2251 166.6294,1056.2771 168.9174,1071.9461 C171.2664,1088.0491 171.9154,1104.5531 171.9154,1121.4551 L171.9154,1121.4551 Z" id="Fill-3" fill="#0C5D35"></path>
        </g>
    </g>
</svg>